<!DOCTYPE svg PUBLIC "-//W3C//DTD SVG 1.1//EN" "http://www.w3.org/Graphics/SVG/1.1/DTD/svg11.dtd">
<!-- Uploaded to: SVG Repo, www.svgrepo.com, Transformed by: SVG Repo Mixer Tools -->
<svg fill="#8a8585" height="256px" width="256px" version="1.1" id="Layer_1" xmlns="http://www.w3.org/2000/svg" xmlns:xlink="http://www.w3.org/1999/xlink" viewBox="0 0 512.00 512.00" xml:space="preserve" stroke="#8a8585" stroke-width="3.5840000000000005">
<g id="SVGRepo_bgCarrier" stroke-width="0"/>
<g id="SVGRepo_tracerCarrier" stroke-linecap="round" stroke-linejoin="round"/>
<g id="SVGRepo_iconCarrier"> <g> <g> <path d="M409.921,209.503c-5.193,0-10.497,0.435-15.843,1.298c-19.842-66.597-80.835-112.463-150.904-112.463 c-55.86,0-107.51,29.656-135.836,77.681C46.799,182.009,0,233.221,0,294.48c0,65.717,53.465,119.182,119.182,119.182h290.739 c56.287,0,102.079-45.792,102.079-102.079S466.208,209.503,409.921,209.503z M409.921,397.628H119.182 c-56.876,0-103.148-46.272-103.148-103.148c0-54.273,42.46-99.434,96.663-102.812c2.733-0.17,5.189-1.723,6.516-4.12 c24.982-45.137,72.482-73.178,123.961-73.178c65.237,0,121.717,44.273,137.35,107.663c1.052,4.267,5.343,6.893,9.621,5.883 c6.708-1.58,13.362-2.381,19.777-2.381c47.446,0,86.046,38.6,86.046,86.046S457.367,397.628,409.921,397.628z"/> </g> </g> <g> <g> <path d="M350.127,247.689c-2.22-3.833-7.125-5.139-10.955-2.922c-3.832,2.219-5.139,7.123-2.921,10.955 c3.791,6.548,5.796,14.037,5.796,21.656v17.102c0,23.871-19.42,43.29-43.29,43.29s-43.29-19.42-43.29-43.29v-17.102 c0-23.871,19.42-43.29,43.29-43.29c4.964,0,9.825,0.831,14.453,2.469c4.174,1.478,8.755-0.708,10.233-4.881 c1.478-4.174-0.708-8.755-4.881-10.233c-6.349-2.249-13.013-3.388-19.803-3.388c-32.711,0-59.324,26.612-59.324,59.324v17.102 c0,32.711,26.612,59.324,59.324,59.324c32.711,0,59.324-26.612,59.324-59.324v-17.102 C358.08,266.942,355.33,256.676,350.127,247.689z"/> </g> </g> <g> <g> <path d="M227.767,327.375c-2.952-3.301-8.021-3.581-11.319-0.628c-7.941,7.108-18.189,11.022-28.86,11.022 c-23.871,0-43.29-19.42-43.29-43.29v-17.102c0-23.871,19.42-43.29,43.29-43.29c10.667,0,20.913,3.912,28.853,11.016 c3.299,2.951,8.366,2.67,11.32-0.628c2.952-3.3,2.671-8.368-0.629-11.32c-10.883-9.738-24.927-15.1-39.544-15.1 c-32.711,0-59.324,26.612-59.324,59.324v17.102c0,32.711,26.612,59.324,59.324,59.324c14.621,0,28.669-5.367,39.553-15.11 C230.441,335.742,230.721,330.674,227.767,327.375z"/> </g> </g> <g> <g> <path d="M266.031,134.656c-6-1.123-12.152-1.806-18.288-2.03c-4.432-0.156-8.142,3.295-8.303,7.72 c-0.161,4.424,3.294,8.142,7.72,8.303c5.344,0.195,10.7,0.789,15.92,1.766c0.499,0.093,0.995,0.139,1.485,0.139 c3.783,0,7.149-2.689,7.87-6.543C273.25,139.659,270.383,135.471,266.031,134.656z"/> </g> </g> <g> <g> <path d="M351.4,196.55c-11.327-20.578-28.191-37.444-48.769-48.771c-3.879-2.137-8.753-0.721-10.889,3.158 c-2.137,3.877-0.723,8.752,3.156,10.888c17.914,9.862,32.595,24.543,42.455,42.457c1.46,2.653,4.202,4.153,7.03,4.153 c1.307,0,2.633-0.321,3.859-0.995C352.12,205.304,353.534,200.429,351.4,196.55z"/> </g> </g> <g> <g> <path d="M474.981,292.185c-6.562-22.039-23.639-39.112-45.679-45.668c-4.245-1.263-8.707,1.154-9.97,5.398 c-1.262,4.244,1.154,8.707,5.398,9.97c16.833,5.008,29.873,18.045,34.885,34.876c1.036,3.48,4.225,5.731,7.68,5.731 c0.757,0,1.529-0.108,2.291-0.336C473.83,300.892,476.244,296.429,474.981,292.185z"/> </g> </g> </g>
</svg>